{
.appVersion = "983";
copyright = "Copyright © 2014, 2015 Adobe Systems Incorporated (http://www.adobe.com/).";
customParameters = (
{
name = description;
value = "Dr. Ken Lunde (project architect, glyph set definition & overall production); Masataka HATTORI 服部正貴 (production & ideograph elements)";
},
{
name = license;
value = "This Font Software is licensed under the SIL Open Font License, Version 1.1. This Font Software is distributed on an \"AS IS\" BASIS, WITHOUT WARRANTIES OR CONDITIONS OF ANY KIND, either express or implied. See the SIL Open Font License for the specific language, permissions and limitations governing your use of this Font Software.";
},
{
name = licenseURL;
value = "http://scripts.sil.org/OFL";
},
{
name = vendorID;
value = GOOG;
},
{
name = panose;
value = (
2,
11,
6,
0,
0,
0,
0,
0,
0,
0
);
},
{
name = unicodeRanges;
value = (
0,
1,
28,
29,
36,
42,
43,
44,
45,
48,
49,
50,
51,
52,
54,
55,
56,
57,
59,
61,
65,
66,
68
);
},
{
name = codePageRanges;
value = (
1252,
1250,
1251,
1258,
932,
936,
949,
1361
);
},
{
name = ROS;
value = "Adobe, Identity, 0";
},
{
name = glyphOrder;
value = (
.notdef,
space
);
}
);
date = "2015-06-15 05:07:29 +0000";
designer = "Ryoko NISHIZUKA 西塚涼子 (kana & ideographs); Paul D. Hunt (Latin, Greek & Cyrillic); Wenlong ZHANG 张文龙 (bopomofo); Sandoll Communication 산돌커뮤니케이션, Soo-young JANG 장수영 & Joo-yeon KANG 강주연 (hangul elements, letters & syllables)";
designerURL = "http://www.adobe.com/type/";
familyName = "Yaku Han JP";
fontMaster = (
{
alignmentZones = (
"{1900, 0}",
"{1100, 0}",
"{1100, 0}",
"{1100, 0}",
"{1100, 0}",
"{1100, 0}",
"{1100, 0}",
"{1100, 0}",
"{1100, 0}",
"{1100, 0}",
"{1100, 0}",
"{1100, 0}",
"{738, 13}",
"{738, 12}",
"{738, 12}",
"{737, 0}",
"{736, 14}",
"{736, 14}",
"{719, 13}",
"{719, 13}",
"{552, 13}",
"{552, 13}",
"{550, 14}",
"{550, 0}",
"{0, 0}",
"{0, -12}",
"{0, -13}",
"{0, -13}",
"{0, -13}",
"{0, -14}",
"{0, -14}",
"{-205, -12}",
"{-223, -24}",
"{-223, -24}",
"{-250, 0}",
"{-250, 0}",

glyphs = (
{
glyphname = .notdef;
lastChange = "2017-04-15 13:11:01 +0000";
layers = (
{
layerId = "AC311C9E-5ED6-4E82-8076-DECA4413555B";
paths = (
{
closed = 1;
nodes = (
"100 -120 LINE",
"900 -120 LINE",
"900 880 LINE",
"100 880 LINE"
);
},
{
closed = 1;
nodes = (
"500 421 LINE",
"182 830 LINE",
"818 830 LINE"
);
},
{
closed = 1;
nodes = (
"532 380 LINE",
"850 789 LINE",
"850 -29 LINE"
);
},
{
closed = 1;
nodes = (
"182 -70 LINE",
"500 339 LINE",
"818 -70 LINE"
);
},
{
closed = 1;
nodes = (
"150 789 LINE",
"468 380 LINE",
"150 -29 LINE"
);
}
);
width = 1000;
}
);
note = .notdef;
},
{
glyphname = "comma-han";
lastChange = "2017-04-16 02:22:37 +0000";
layers = (
{
layerId = "AC311C9E-5ED6-4E82-8076-DECA4413555B";
paths = (
{
closed = 1;
nodes = (
"353 11 LINE",
"296 80 OFFCURVE",
"203 174 OFFCURVE",
"132 232 CURVE",
"50 160 LINE",
"120 101 OFFCURVE",
"205 16 OFFCURVE",
"268 -61 CURVE"
);
}
);
vertWidth = 1000;
width = 553;
}
);
note = cid01390;
unicode = 3001;
},
{
glyphname = ellipsis;
lastChange = "2017-04-15 13:11:01 +0000";
layers = (
{
layerId = "AC311C9E-5ED6-4E82-8076-DECA4413555B";
paths = (
{
closed = 1;
nodes = (
"95 340 OFFCURVE",
"127 308 OFFCURVE",
"167 308 CURVE SMOOTH",
"207 308 OFFCURVE",
"239 340 OFFCURVE",
"239 380 CURVE SMOOTH",
"239 420 OFFCURVE",
"207 452 OFFCURVE",
"167 452 CURVE SMOOTH",
"127 452 OFFCURVE",
"95 420 OFFCURVE",
"95 380 CURVE SMOOTH"
);
},
{
closed = 1;
nodes = (
"428 340 OFFCURVE",
"460 308 OFFCURVE",
"500 308 CURVE SMOOTH",
"540 308 OFFCURVE",
"572 340 OFFCURVE",
"572 380 CURVE SMOOTH",
"572 420 OFFCURVE",
"540 452 OFFCURVE",
"500 452 CURVE SMOOTH",
"460 452 OFFCURVE",
"428 420 OFFCURVE",
"428 380 CURVE SMOOTH"
);
},
{
closed = 1;
nodes = (
"761 340 OFFCURVE",
"793 308 OFFCURVE",
"833 308 CURVE SMOOTH",
"873 308 OFFCURVE",
"905 340 OFFCURVE",
"905 380 CURVE SMOOTH",
"905 420 OFFCURVE",
"873 452 OFFCURVE",
"833 452 CURVE SMOOTH",
"793 452 OFFCURVE",
"761 420 OFFCURVE",
"761 380 CURVE SMOOTH"
);
}
);
width = 1000;
}
);
note = cid00728;
unicode = 2026;
},
{
glyphname = "period-han";
lastChange = "2017-04-16 02:22:42 +0000";
layers = (
{
layerId = "AC311C9E-5ED6-4E82-8076-DECA4413555B";
paths = (
{
closed = 1;
nodes = (
"120 246 OFFCURVE",
"50 175 OFFCURVE",
"50 89 CURVE SMOOTH",
"50 3 OFFCURVE",
"120 -67 OFFCURVE",
"206 -67 CURVE SMOOTH",
"293 -67 OFFCURVE",
"362 3 OFFCURVE",
"362 89 CURVE SMOOTH",
"362 175 OFFCURVE",
"293 246 OFFCURVE",
"206 246 CURVE SMOOTH"
);
},
{
closed = 1;
nodes = (
"153 -7 OFFCURVE",
"110 36 OFFCURVE",
"110 89 CURVE SMOOTH",
"110 142 OFFCURVE",
"153 185 OFFCURVE",
"206 185 CURVE SMOOTH",
"259 185 OFFCURVE",
"302 142 OFFCURVE",
"302 89 CURVE SMOOTH",
"302 36 OFFCURVE",
"259 -7 OFFCURVE",
"206 -7 CURVE SMOOTH"
);
}
);
vertWidth = 1000;
width = 762;
}
);
note = cid01391;
unicode = 3002;
},
{
glyphname = colon.full;
lastChange = "2017-04-16 02:22:55 +0000";
layers = (
{
layerId = "AC311C9E-5ED6-4E82-8076-DECA4413555B";
paths = (
{
closed = 1;
nodes = (
"280 532 OFFCURVE",
"318 566 OFFCURVE",
"318 615 CURVE SMOOTH",
"318 664 OFFCURVE",
"280 699 OFFCURVE",
"234 699 CURVE SMOOTH",
"188 699 OFFCURVE",
"150 664 OFFCURVE",
"150 615 CURVE SMOOTH",
"150 566 OFFCURVE",
"188 532 OFFCURVE",
"234 532 CURVE SMOOTH"
);
},
{
closed = 1;
nodes = (
"280 48 OFFCURVE",
"318 82 OFFCURVE",
"318 130 CURVE SMOOTH",
"318 180 OFFCURVE",
"280 214 OFFCURVE",
"234 214 CURVE SMOOTH",
"188 214 OFFCURVE",
"150 180 OFFCURVE",
"150 130 CURVE SMOOTH",
"150 82 OFFCURVE",
"188 48 OFFCURVE",
"234 48 CURVE SMOOTH"
);
}
);
vertWidth = 1000;
width = 468;
}
);
note = cid59017;
unicode = FF1A;
},
{
glyphname = exclam.full;
lastChange = "2017-04-16 02:22:55 +0000";
layers = (
{
layerId = "AC311C9E-5ED6-4E82-8076-DECA4413555B";
paths = (
{
closed = 1;
nodes = (
"200 248 LINE",
"282 248 LINE",
"312 616 LINE",
"315 748 LINE",
"168 748 LINE",
"171 616 LINE"
);
},
{
closed = 1;
nodes = (
"291 -7 OFFCURVE",
"332 28 OFFCURVE",
"332 80 CURVE SMOOTH",
"332 132 OFFCURVE",
"291 168 OFFCURVE",
"241 168 CURVE SMOOTH",
"191 168 OFFCURVE",
"150 132 OFFCURVE",
"150 80 CURVE SMOOTH",
"150 28 OFFCURVE",
"191 -7 OFFCURVE",
"241 -7 CURVE SMOOTH"
);
}
);
width = 482;
}
);
note = cid58992;
unicode = FF01;
},
{
glyphname = question.full;
lastChange = "2017-04-16 02:22:55 +0000";
layers = (
{
layerId = "AC311C9E-5ED6-4E82-8076-DECA4413555B";
paths = (
{
closed = 1;
nodes = (
"436 248 LINE",
"415 394 OFFCURVE",
"645 419 OFFCURVE",
"645 568 CURVE SMOOTH",
"645 691 OFFCURVE",
"547 761 OFFCURVE",
"405 761 CURVE SMOOTH",
"297 761 OFFCURVE",
"214 714 OFFCURVE",
"150 642 CURVE",
"216 581 LINE",
"267 638 OFFCURVE",
"327 666 OFFCURVE",
"392 666 CURVE SMOOTH",
"484 666 OFFCURVE",
"533 623 OFFCURVE",
"533 558 CURVE SMOOTH",
"533 452 OFFCURVE",
"307 411 OFFCURVE",
"334 248 CURVE"
);
},
{
closed = 1;
nodes = (
"296 28 OFFCURVE",
"335 -7 OFFCURVE",
"386 -7 CURVE SMOOTH",
"437 -7 OFFCURVE",
"477 28 OFFCURVE",
"477 81 CURVE SMOOTH",
"477 134 OFFCURVE",
"437 168 OFFCURVE",
"386 168 CURVE SMOOTH",
"335 168 OFFCURVE",
"296 134 OFFCURVE",
"296 81 CURVE SMOOTH"
);
}
);
width = 795;
}
);
note = cid59022;
unicode = FF1F;
},
{
glyphname = semicolon.full;
lastChange = "2017-04-16 02:22:55 +0000";
layers = (
{
layerId = "AC311C9E-5ED6-4E82-8076-DECA4413555B";
paths = (
{
closed = 1;
nodes = (
"305 532 OFFCURVE",
"343 566 OFFCURVE",
"343 615 CURVE SMOOTH",
"343 664 OFFCURVE",
"305 699 OFFCURVE",
"259 699 CURVE SMOOTH",
"213 699 OFFCURVE",
"175 664 OFFCURVE",
"175 615 CURVE SMOOTH",
"175 566 OFFCURVE",
"213 532 OFFCURVE",
"259 532 CURVE SMOOTH"
);
},
{
closed = 1;
nodes = (
"177 -115 LINE",
"292 -74 OFFCURVE",
"360 15 OFFCURVE",
"360 135 CURVE SMOOTH",
"360 218 OFFCURVE",
"326 269 OFFCURVE",
"264 269 CURVE SMOOTH",
"219 269 OFFCURVE",
"180 240 OFFCURVE",
"180 189 CURVE SMOOTH",
"180 137 OFFCURVE",
"218 108 OFFCURVE",
"263 108 CURVE SMOOTH",
"268 108 OFFCURVE",
"273 108 OFFCURVE",
"278 109 CURVE",
"276 37 OFFCURVE",
"232 -15 OFFCURVE",
"150 -50 CURVE"
);
}
);
vertWidth = 1000;
width = 510;
}
);
note = cid59018;
unicode = FF1B;
},
{
glyphname = anglebracketleft;
lastChange = "2017-04-16 02:23:10 +0000";
layers = (
{
layerId = "AC311C9E-5ED6-4E82-8076-DECA4413555B";
paths = (
{
closed = 1;
nodes = (
"300 380 LINE",
"571 814 LINE",
"493 848 LINE",
"200 380 LINE",
"493 -88 LINE",
"571 -54 LINE"
);
}
);
vertWidth = 1000;
width = 601;
}
);
note = cid01397;
unicode = 3008;
},
{
glyphname = anglebracketright;
lastChange = "2017-04-16 02:23:20 +0000";
layers = (
{
layerId = "AC311C9E-5ED6-4E82-8076-DECA4413555B";
paths = (
{
closed = 1;
nodes = (
"108 -88 LINE",
"401 380 LINE",
"108 848 LINE",
"30 814 LINE",
"301 380 LINE",
"30 -54 LINE"
);
}
);
vertWidth = 1000;
width = 601;
}
);
note = cid01398;
unicode = 3009;
},
{
glyphname = blacklenticularbracketleft;
lastChange = "2017-04-16 02:23:10 +0000";
layers = (
{
layerId = "AC311C9E-5ED6-4E82-8076-DECA4413555B";
paths = (
{
closed = 1;
nodes = (
"200 848 LINE",
"200 -88 LINE",
"504 -88 LINE",
"504 -83 LINE",
"395 9 OFFCURVE",
"306 176 OFFCURVE",
"306 380 CURVE SMOOTH",
"306 584 OFFCURVE",
"395 751 OFFCURVE",
"504 843 CURVE",
"504 848 LINE"
);
}
);
vertWidth = 1000;
width = 534;
}
);
note = cid01405;
unicode = 3010;
},
{
glyphname = blacklenticularbracketright;
lastChange = "2017-04-16 02:23:20 +0000";
layers = (
{
layerId = "AC311C9E-5ED6-4E82-8076-DECA4413555B";
paths = (
{
closed = 1;
nodes = (
"334 848 LINE",
"30 848 LINE",
"30 843 LINE",
"139 751 OFFCURVE",
"228 584 OFFCURVE",
"228 380 CURVE SMOOTH",
"228 176 OFFCURVE",
"139 9 OFFCURVE",
"30 -83 CURVE",
"30 -88 LINE",
"334 -88 LINE"
);
}
);
vertWidth = 1000;
width = 534;
}
);
note = cid01406;
unicode = 3011;
},
{
glyphname = braceleft.full;
lastChange = "2017-04-16 02:23:10 +0000";
layers = (
{
layerId = "AC311C9E-5ED6-4E82-8076-DECA4413555B";
paths = (
{
closed = 1;
nodes = (
"473 -95 LINE",
"473 -33 LINE",
"441 -33 LINE SMOOTH",
"385 -33 OFFCURVE",
"371 -7 OFFCURVE",
"371 61 CURVE SMOOTH",
"371 126 OFFCURVE",
"376 183 OFFCURVE",
"376 255 CURVE SMOOTH",
"376 330 OFFCURVE",
"356 365 OFFCURVE",
"305 378 CURVE",
"305 382 LINE",
"356 396 OFFCURVE",
"376 430 OFFCURVE",
"376 505 CURVE SMOOTH",
"376 578 OFFCURVE",
"371 635 OFFCURVE",
"371 699 CURVE SMOOTH",
"371 768 OFFCURVE",
"385 793 OFFCURVE",
"441 793 CURVE SMOOTH",
"473 793 LINE",
"473 856 LINE",
"418 856 LINE SMOOTH",
"327 856 OFFCURVE",
"285 821 OFFCURVE",
"285 704 CURVE SMOOTH",
"285 626 OFFCURVE",
"295 573 OFFCURVE",
"295 499 CURVE SMOOTH",
"295 458 OFFCURVE",
"274 415 OFFCURVE",
"200 414 CURVE",
"200 346 LINE",
"274 345 OFFCURVE",
"295 303 OFFCURVE",
"295 262 CURVE SMOOTH",
"295 189 OFFCURVE",
"285 135 OFFCURVE",
"285 56 CURVE SMOOTH",
"285 -60 OFFCURVE",
"327 -95 OFFCURVE",
"418 -95 CURVE SMOOTH"
);
}
);
vertWidth = 1000;
width = 503;
}
);
note = cid59082;
unicode = FF5B;
},
{
glyphname = braceright.full;
lastChange = "2017-04-16 02:23:20 +0000";
layers = (
{
layerId = "AC311C9E-5ED6-4E82-8076-DECA4413555B";
paths = (
{
closed = 1;
nodes = (
"85 -95 LINE SMOOTH",
"176 -95 OFFCURVE",
"218 -60 OFFCURVE",
"218 56 CURVE SMOOTH",
"218 135 OFFCURVE",
"208 189 OFFCURVE",
"208 262 CURVE SMOOTH",
"208 303 OFFCURVE",
"229 345 OFFCURVE",
"303 346 CURVE",
"303 414 LINE",
"229 415 OFFCURVE",
"208 458 OFFCURVE",
"208 499 CURVE SMOOTH",
"208 573 OFFCURVE",
"218 626 OFFCURVE",
"218 704 CURVE SMOOTH",
"218 821 OFFCURVE",
"176 856 OFFCURVE",
"85 856 CURVE SMOOTH",
"30 856 LINE",
"30 793 LINE",
"62 793 LINE SMOOTH",
"118 793 OFFCURVE",
"132 768 OFFCURVE",
"132 699 CURVE SMOOTH",
"132 635 OFFCURVE",
"127 578 OFFCURVE",
"127 505 CURVE SMOOTH",
"127 430 OFFCURVE",
"147 396 OFFCURVE",
"198 382 CURVE",
"198 378 LINE",
"147 365 OFFCURVE",
"127 330 OFFCURVE",
"127 255 CURVE SMOOTH",
"127 183 OFFCURVE",
"132 126 OFFCURVE",
"132 61 CURVE SMOOTH",
"132 -7 OFFCURVE",
"118 -33 OFFCURVE",
"62 -33 CURVE SMOOTH",
"30 -33 LINE",
"30 -95 LINE"
);
}
);
vertWidth = 1000;
width = 503;
}
);
note = cid59084;
unicode = FF5D;
},
{
glyphname = cornerbracketleft;
lastChange = "2017-04-16 02:23:10 +0000";
layers = (
{
layerId = "AC311C9E-5ED6-4E82-8076-DECA4413555B";
paths = (
{
closed = 1;
nodes = (
"200 205 LINE",
"293 205 LINE",
"293 762 LINE",
"522 762 LINE",
"522 848 LINE",
"200 848 LINE"
);
}
);
vertWidth = 1000;
width = 552;
}
);
note = cid01401;
unicode = 300C;
},
{
glyphname = cornerbracketright;
lastChange = "2017-04-16 02:23:20 +0000";
layers = (
{
layerId = "AC311C9E-5ED6-4E82-8076-DECA4413555B";
paths = (
{
closed = 1;
nodes = (
"352 555 LINE",
"259 555 LINE",
"259 -2 LINE",
"30 -2 LINE",
"30 -88 LINE",
"352 -88 LINE"
);
}
);
vertWidth = 1000;
width = 552;
}
);
note = cid01402;
unicode = 300D;
},
{
glyphname = dblanglebracketleft;
lastChange = "2017-04-16 02:23:10 +0000";
layers = (
{
layerId = "AC311C9E-5ED6-4E82-8076-DECA4413555B";
paths = (
{
closed = 1;
nodes = (
"275 380 LINE",
"479 827 LINE",
"412 848 LINE",
"200 380 LINE",
"412 -88 LINE",
"479 -67 LINE"
);
},
{
closed = 1;
nodes = (
"439 380 LINE",
"643 827 LINE",
"576 848 LINE",
"364 380 LINE",
"576 -88 LINE",
"643 -67 LINE"
);
}
);
vertWidth = 1000;
width = 673;
}
);
note = cid01399;
unicode = 300A;
},
{
glyphname = dblanglebracketright;
lastChange = "2017-04-16 02:23:20 +0000";
layers = (
{
layerId = "AC311C9E-5ED6-4E82-8076-DECA4413555B";
paths = (
{
closed = 1;
nodes = (
"261 -88 LINE",
"473 380 LINE",
"261 848 LINE",
"194 827 LINE",
"398 380 LINE",
"194 -67 LINE"
);
},
{
closed = 1;
nodes = (
"97 -88 LINE",
"309 380 LINE",
"97 848 LINE",
"30 827 LINE",
"234 380 LINE",
"30 -67 LINE"
);
}
);
vertWidth = 1000;
width = 673;
}
);
note = cid01400;
unicode = 300B;
},
{
glyphname = tortoiseshellbracketleft;
lastChange = "2017-04-16 02:23:10 +0000";
layers = (
{
layerId = "AC311C9E-5ED6-4E82-8076-DECA4413555B";
paths = (
{
closed = 1;
nodes = (
"424 -101 LINE",
"463 -37 LINE",
"288 76 LINE",
"288 684 LINE",
"463 797 LINE",
"424 861 LINE",
"200 716 LINE",
"200 44 LINE"
);
}
);
vertWidth = 1000;
width = 493;
}
);
note = cid01409;
unicode = 3014;
},
{
glyphname = tortoiseshellbracketright;
lastChange = "2017-04-16 02:23:20 +0000";
layers = (
{
layerId = "AC311C9E-5ED6-4E82-8076-DECA4413555B";
paths = (
{
closed = 1;
nodes = (
"293 44 LINE",
"293 716 LINE",
"69 861 LINE",
"30 797 LINE",
"205 684 LINE",
"205 76 LINE",
"30 -37 LINE",
"69 -101 LINE"
);
}
);
vertWidth = 1000;
width = 493;
}
);
note = cid01410;
unicode = 3015;
},
{
glyphname = whitecornerbracketleft;
lastChange = "2017-04-16 02:23:10 +0000";
layers = (
{
layerId = "AC311C9E-5ED6-4E82-8076-DECA4413555B";
paths = (
{
closed = 1;
nodes = (
"568 683 LINE",
"568 848 LINE",
"200 848 LINE",
"200 187 LINE",
"380 187 LINE",
"380 683 LINE"
);
},
{
closed = 1;
nodes = (
"531 811 LINE",
"531 721 LINE",
"342 721 LINE",
"342 224 LINE",
"237 224 LINE",
"237 811 LINE"
);
}
);
vertWidth = 1000;
width = 598;
}
);
note = cid01403;
unicode = 300E;
},
{
glyphname = whitecornerbracketright;
lastChange = "2017-04-16 02:23:20 +0000";
layers = (
{
layerId = "AC311C9E-5ED6-4E82-8076-DECA4413555B";
paths = (
{
closed = 1;
nodes = (
"30 77 LINE",
"30 -88 LINE",
"398 -88 LINE",
"398 573 LINE",
"218 573 LINE",
"218 77 LINE"
);
},
{
closed = 1;
nodes = (
"67 -51 LINE",
"67 39 LINE",
"256 39 LINE",
"256 536 LINE",
"361 536 LINE",
"361 -51 LINE"
);
}
);
vertWidth = 1000;
width = 598;
}
);
note = cid01404;
unicode = 300F;
},
{
glyphname = whitelenticularbracketleft;
lastChange = "2017-04-16 02:23:10 +0000";
layers = (
{
layerId = "AC311C9E-5ED6-4E82-8076-DECA4413555B";
paths = (
{
closed = 1;
nodes = (
"543 -71 LINE",
"385 1 OFFCURVE",
"280 157 OFFCURVE",
"280 380 CURVE SMOOTH",
"280 603 OFFCURVE",
"385 759 OFFCURVE",
"543 831 CURVE",
"543 848 LINE",
"200 848 LINE",
"200 -88 LINE",
"543 -88 LINE"
);
},
{
closed = 1;
nodes = (
"225 -64 LINE",
"225 824 LINE",
"479 824 LINE",
"384 766 OFFCURVE",
"256 634 OFFCURVE",
"256 380 CURVE SMOOTH",
"256 126 OFFCURVE",
"384 -6 OFFCURVE",
"479 -64 CURVE"
);
}
);
vertWidth = 1000;
width = 573;
}
);
note = cid01411;
unicode = 3016;
},
{
glyphname = whitelenticularbracketright;
lastChange = "2017-04-16 02:23:20 +0000";
layers = (
{
layerId = "AC311C9E-5ED6-4E82-8076-DECA4413555B";
paths = (
{
closed = 1;
nodes = (
"30 -88 LINE",
"373 -88 LINE",
"373 848 LINE",
"30 848 LINE",
"30 831 LINE",
"188 759 OFFCURVE",
"293 603 OFFCURVE",
"293 380 CURVE SMOOTH",
"293 157 OFFCURVE",
"188 1 OFFCURVE",
"30 -71 CURVE"
);
},
{
closed = 1;
nodes = (
"94 -64 LINE",
"189 -6 OFFCURVE",
"317 126 OFFCURVE",
"317 380 CURVE SMOOTH",
"317 634 OFFCURVE",
"189 766 OFFCURVE",
"94 824 CURVE",
"348 824 LINE",
"348 -64 LINE"
);
}
);
vertWidth = 1000;
width = 573;
}
);
note = cid01412;
unicode = 3017;
},
{
glyphname = bracketleft.full;
lastChange = "2017-04-16 02:23:10 +0000";
layers = (
{
layerId = "AC311C9E-5ED6-4E82-8076-DECA4413555B";
paths = (
{
closed = 1;
nodes = (
"200 -88 LINE",
"456 -88 LINE",
"456 -24 LINE",
"287 -24 LINE",
"287 784 LINE",
"456 784 LINE",
"456 848 LINE",
"200 848 LINE"
);
}
);
vertWidth = 1000;
width = 486;
}
);
note = cid59050;
unicode = FF3B;
},
{
glyphname = bracketright.full;
lastChange = "2017-04-16 02:23:20 +0000";
layers = (
{
layerId = "AC311C9E-5ED6-4E82-8076-DECA4413555B";
paths = (
{
closed = 1;
nodes = (
"286 848 LINE",
"30 848 LINE",
"30 784 LINE",
"199 784 LINE",
"199 -24 LINE",
"30 -24 LINE",
"30 -88 LINE",
"286 -88 LINE"
);
}
);
vertWidth = 1000;
width = 486;
}
);
note = cid59052;
unicode = FF3D;
},
{
glyphname = parenleft.full;
lastChange = "2017-04-16 02:23:10 +0000";
layers = (
{
layerId = "AC311C9E-5ED6-4E82-8076-DECA4413555B";
paths = (
{
closed = 1;
nodes = (
"474 -62 LINE",
"365 52 OFFCURVE",
"290 196 OFFCURVE",
"290 380 CURVE SMOOTH",
"290 564 OFFCURVE",
"365 708 OFFCURVE",
"474 822 CURVE",
"398 858 LINE",
"284 743 OFFCURVE",
"200 583 OFFCURVE",
"200 380 CURVE SMOOTH",
"200 177 OFFCURVE",
"284 17 OFFCURVE",
"398 -98 CURVE"
);
}
);
vertWidth = 1000;
width = 504;
}
);
note = cid58999;
unicode = FF08;
},
{
glyphname = parenright.full;
lastChange = "2017-04-16 02:23:20 +0000";
layers = (
{
layerId = "AC311C9E-5ED6-4E82-8076-DECA4413555B";
paths = (
{
closed = 1;
nodes = (
"30 822 LINE",
"139 708 OFFCURVE",
"214 564 OFFCURVE",
"214 380 CURVE SMOOTH",
"214 196 OFFCURVE",
"139 52 OFFCURVE",
"30 -62 CURVE",
"106 -98 LINE",
"220 17 OFFCURVE",
"304 177 OFFCURVE",
"304 380 CURVE SMOOTH",
"304 583 OFFCURVE",
"220 743 OFFCURVE",
"106 858 CURVE"
);
}
);
vertWidth = 1000;
width = 504;
}
);
note = cid59000;
unicode = FF09;
},
{
glyphname = "dot-kata";
lastChange = "2017-04-16 02:22:55 +0000";
layers = (
{
layerId = "AC311C9E-5ED6-4E82-8076-DECA4413555B";
paths = (
{
closed = 1;
nodes = (
"150 316 OFFCURVE",
"202 264 OFFCURVE",
"266 264 CURVE SMOOTH",
"330 264 OFFCURVE",
"382 316 OFFCURVE",
"382 380 CURVE SMOOTH",
"382 444 OFFCURVE",
"330 496 OFFCURVE",
"266 496 CURVE SMOOTH",
"202 496 OFFCURVE",
"150 444 OFFCURVE",
"150 380 CURVE SMOOTH"
);
}
